<svg width="33" height="31" viewBox="0 0 33 31" fill="none" xmlns="http://www.w3.org/2000/svg">
<path d="M15.0867 28.1818C15.0867 29.7412 13.8231 31 12.2579 31C10.6927 31 9.42916 29.7412 9.42916 28.1818C9.42916 26.6224 10.6927 25.3636 12.2579 25.3636C13.8231 25.3636 15.0867 26.6224 15.0867 28.1818ZM24.5158 25.3636C22.9506 25.3636 21.6871 26.6224 21.6871 28.1818C21.6871 29.7412 22.9506 31 24.5158 31C26.0811 31 27.3446 29.7412 27.3446 28.1818C27.3446 26.6224 26.0811 25.3636 24.5158 25.3636ZM32.9643 7.38364L29.1927 22.4139C29.0418 23.0339 28.4761 23.4848 27.816 23.4848H8.9577C8.2788 23.4848 7.69419 22.9964 7.56219 22.32L3.99796 2.81818H1.41437C0.641183 2.81818 0 2.17939 0 1.40909C0 0.638788 0.641183 0 1.41437 0H5.18604C5.86494 0 6.44954 0.488485 6.58155 1.16485L7.39246 5.63636H31.5877C32.0214 5.63636 32.4363 5.84303 32.7003 6.18121C32.9643 6.51939 33.0586 6.9703 32.9643 7.38364ZM29.7773 8.45455H7.90164L10.1269 20.6667H26.7034L29.7773 8.45455Z" fill="white"/>
</svg>
