<svg width="31" height="33" viewBox="0 0 31 33" fill="none" xmlns="http://www.w3.org/2000/svg">
<path d="M15.5 17.069C14.0166 17.069 12.5666 16.5684 11.3332 15.6306C10.0999 14.6929 9.13856 13.36 8.57091 11.8005C8.00325 10.241 7.85472 8.52502 8.14411 6.86949C8.4335 5.21396 9.14781 3.69326 10.1967 2.4997C11.2456 1.30613 12.582 0.493296 14.0368 0.163992C15.4917 -0.165313 16.9997 0.00369787 18.3701 0.649653C19.7406 1.29561 20.9119 2.38949 21.736 3.79298C22.5601 5.19647 23 6.84652 23 8.53449C23 10.798 22.2098 12.9688 20.8033 14.5693C19.3968 16.1698 17.4891 17.069 15.5 17.069ZM15.5 3.4138C14.61 3.4138 13.74 3.71412 12.9999 4.27679C12.2599 4.83946 11.6831 5.6392 11.3425 6.57488C11.002 7.51057 10.9128 8.54017 11.0865 9.53348C11.2601 10.5268 11.6887 11.4392 12.318 12.1554C12.9474 12.8715 13.7492 13.3592 14.6221 13.5568C15.495 13.7544 16.3998 13.653 17.2221 13.2654C18.0443 12.8778 18.7472 12.2215 19.2416 11.3794C19.7361 10.5373 20 9.54726 20 8.53449C20 7.17639 19.5259 5.87393 18.682 4.91361C17.8381 3.9533 16.6935 3.4138 15.5 3.4138Z" fill="white"/>
<path d="M29.5 33C29.1038 32.9941 28.7253 32.8123 28.4451 32.4935C28.1649 32.1747 28.0052 31.7439 28 31.2931C28 26.8551 25.88 23.8965 15.5 23.8965C5.12 23.8965 3 26.8551 3 31.2931C3 31.7458 2.84196 32.1799 2.56066 32.5C2.27936 32.8201 1.89782 33 1.5 33C1.10218 33 0.720644 32.8201 0.43934 32.5C0.158035 32.1799 0 31.7458 0 31.2931C0 20.4827 10.86 20.4827 15.5 20.4827C20.14 20.4827 31 20.4827 31 31.2931C30.9948 31.7439 30.8351 32.1747 30.5549 32.4935C30.2747 32.8123 29.8962 32.9941 29.5 33Z" fill="white"/>
</svg>
